<?xml version="1.0" encoding="UTF-8"?>
<svg version="1.1" xmlns="http://www.w3.org/2000/svg" width="552" height="547">
<path d="M0 0 C1.49506828 -0.00855011 1.49506828 -0.00855011 3.02033997 -0.01727295 C5.12381958 -0.02666591 7.22731353 -0.03323404 9.33081055 -0.03710938 C12.46626386 -0.04671187 15.60103092 -0.07774776 18.73632812 -0.109375 C36.84900534 -0.2045501 54.6136105 1.62063985 72.33203125 5.453125 C73.80446289 5.76890503 73.80446289 5.76890503 75.30664062 6.09106445 C116.59106069 15.25475482 154.16737635 34.19180629 187.33203125 60.203125 C188.34910156 60.99332031 189.36617188 61.78351562 190.4140625 62.59765625 C205.95409065 75.20483505 221.41421065 90.14366067 233.06445312 106.44824219 C234.47907971 108.40670442 235.94237671 110.32326836 237.41015625 112.2421875 C268.88993594 153.91130167 289.28847779 208.16331747 289.53515625 260.65234375 C289.54085632 261.62685989 289.5465564 262.60137604 289.5524292 263.60542297 C289.56182033 265.6618239 289.56838955 267.71823948 289.57226562 269.7746582 C289.58186535 272.83769009 289.61290175 275.9000186 289.64453125 278.96289062 C289.9689749 339.38208186 267.33762373 397.02067656 230.33203125 444.203125 C229.54183594 445.22019531 228.75164062 446.23726563 227.9375 447.28515625 C215.33280943 462.82211732 200.39622641 478.2817501 184.09570312 489.93115234 C182.11291278 491.36115479 180.16885747 492.83702427 178.22265625 494.31640625 C135.56580365 526.39208185 80.32503327 547.1600198 26.6640625 547.40625 C25.66735031 547.41195007 24.67063812 547.41765015 23.64372253 547.42352295 C21.54024292 547.43291591 19.43674897 547.43948404 17.33325195 547.44335938 C14.19779864 547.45296187 11.06303158 547.48399776 7.92773438 547.515625 C-10.18494284 547.6108001 -27.949548 545.78561015 -45.66796875 541.953125 C-47.14040039 541.63734497 -47.14040039 541.63734497 -48.64257812 541.31518555 C-89.92699819 532.15149518 -127.50331385 513.21444371 -160.66796875 487.203125 C-161.68503906 486.41292969 -162.70210938 485.62273437 -163.75 484.80859375 C-179.29002815 472.20141495 -194.75014815 457.26258933 -206.40039062 440.95800781 C-207.81501721 438.99954558 -209.27831421 437.08298164 -210.74609375 435.1640625 C-242.22587344 393.49494833 -262.62441529 339.24293253 -262.87109375 286.75390625 C-262.87679382 285.77939011 -262.8824939 284.80487396 -262.8883667 283.80082703 C-262.89775783 281.7444261 -262.90432705 279.68801052 -262.90820312 277.6315918 C-262.91780285 274.56855991 -262.94883925 271.5062314 -262.98046875 268.44335938 C-263.3049124 208.02416814 -240.67356123 150.38557344 -203.66796875 103.203125 C-202.87777344 102.18605469 -202.08757812 101.16898437 -201.2734375 100.12109375 C-188.66874693 84.58413268 -173.73216391 69.1244999 -157.43164062 57.47509766 C-155.44885028 56.04509521 -153.50479497 54.56922573 -151.55859375 53.08984375 C-108.90174115 21.01416815 -53.66097077 0.2462302 0 0 Z " fill="#1A1A1A" transform="translate(262.66796875,-0.203125)"/>
<path d="M0 0 C3.29007861 3.00304591 5.3189605 6.01613015 7.43359375 9.92578125 C7.74761642 10.50110092 8.0616391 11.07642059 8.38517761 11.66917419 C9.05833445 12.9041474 9.72837707 14.14082233 10.39556885 15.37902832 C11.81325626 18.00977649 13.24612707 20.63214422 14.67828369 23.2550354 C15.40702378 24.58989046 16.1350081 25.9251584 16.86224365 27.26083374 C20.05709653 33.12445722 23.32590569 38.94439429 26.625 44.75 C31.10879675 52.6525965 35.5659536 60.56937385 40 68.5 C46.63023842 80.35403489 53.30830106 92.18057802 60 104 C67.31363792 116.91794111 74.59955862 129.85047261 81.84179688 142.80859375 C85.50373982 149.3521322 89.20377058 155.87219777 92.9375 162.375 C97.4474147 170.23139339 101.86413749 178.13624245 106.25 186.0625 C111.42742749 195.41788752 116.67790079 204.72629784 122 214 C129.1786256 226.51136862 136.19717696 239.10752243 143.18408203 251.72705078 C146.12885285 257.03460625 149.0948567 262.33020897 152.0625 267.625 C152.62614258 268.63135498 153.18978516 269.63770996 153.77050781 270.67456055 C156.50232153 275.5504034 159.2377513 280.42417809 161.9797821 285.29428101 C162.97344378 287.05957788 163.96623583 288.82536084 164.95874023 290.59130859 C166.21558315 292.82701261 167.47415068 295.06174818 168.73461914 297.29541016 C169.2939917 298.2910498 169.85336426 299.28668945 170.4296875 300.3125 C170.92710449 301.19550781 171.42452148 302.07851563 171.93701172 302.98828125 C173 305 173 305 173 306 C158.81 306 144.62 306 130 306 C128.1025 302.473125 126.205 298.94625 124.25 295.3125 C119.3868031 286.30774186 114.40998682 277.37888603 109.30712891 268.50805664 C106.20351961 263.11174156 103.13936197 257.69666998 100.125 252.25 C91.68227599 236.99790885 83.15559194 221.79285875 74.5625 206.625 C69.74921609 198.12757457 64.98714365 189.60251525 60.25 181.0625 C59.92816742 180.48232117 59.60633484 179.90214233 59.27474976 179.30438232 C58.95615997 178.73004456 58.63757019 178.15570679 58.30932617 177.56396484 C52.60572698 167.28281799 46.84818534 157.03367662 41.05859375 146.80078125 C39.97651866 144.88804564 38.89448879 142.97528444 37.8125 141.0625 C37.26319824 140.09151367 36.71389648 139.12052734 36.14794922 138.12011719 C32.0799198 130.92382835 28.03561353 123.71450778 24 116.5 C22.83602178 114.42182779 21.67195932 112.34370277 20.5078125 110.265625 C18.72999448 107.09201589 16.95397827 103.9174527 15.18261719 100.74023438 C13.4174619 97.57453899 11.64670668 94.41203231 9.875 91.25 C9.34261719 90.29158203 8.81023437 89.33316406 8.26171875 88.34570312 C5.78590408 83.93824385 3.35333109 79.81862584 0 76 C-7.03981441 87.8907388 -13.98008613 99.81489554 -20.5 112 C-25.34672698 121.05198622 -30.41659706 129.94322819 -35.62890625 138.7890625 C-40.03909973 146.29515339 -44.29572106 153.87689269 -48.5 161.5 C-53.26116807 170.1328466 -58.12002384 178.69369945 -63.125 187.1875 C-70.06161233 198.96374706 -76.54591399 210.95237278 -83 223 C-69.14 223 -55.28 223 -41 223 C-40.01 220.03 -40.01 220.03 -39 217 C-37.96749363 214.93549496 -36.88408523 212.89596945 -35.76171875 210.87890625 C-35.44468491 210.30605392 -35.12765106 209.7332016 -34.80101013 209.14299011 C-33.76818396 207.2799913 -32.72806236 205.42118718 -31.6875 203.5625 C-30.9636971 202.26157836 -30.24023084 200.96046937 -29.51708984 199.65917969 C-27.35236854 195.76849291 -25.17699558 191.88382799 -23 188 C-22.38495605 186.90091309 -21.76991211 185.80182617 -21.13623047 184.66943359 C-14.23935732 172.35761188 -7.2126184 160.12957271 0 148 C3.34242864 151.04966116 5.438403 154.17732531 7.63671875 158.12109375 C7.96162796 158.7028688 8.28653717 159.28464386 8.62129211 159.88404846 C9.30270663 161.10842782 9.98073064 162.3346997 10.65551758 163.56274414 C11.68540362 165.43369161 12.72955704 167.29613315 13.77539062 169.15820312 C14.43837176 170.35368363 15.10050998 171.54963206 15.76171875 172.74609375 C16.35944092 173.82560303 16.95716309 174.9051123 17.57299805 176.01733398 C18.92949082 178.85262435 19.83409315 180.86959968 20 184 C18.95532227 186.64038086 18.95532227 186.64038086 17.31640625 189.46484375 C16.71763672 190.51349609 16.11886719 191.56214844 15.50195312 192.64257812 C14.86193359 193.72990234 14.22191406 194.81722656 13.5625 195.9375 C12.95728516 196.99001953 12.35207031 198.04253906 11.72851562 199.12695312 C10.48792311 201.28194224 9.24125939 203.43344683 7.98876953 205.58154297 C5.81618796 209.31595093 3.66847269 213.06391192 1.52734375 216.81640625 C1.17515274 217.43345932 0.82296173 218.05051239 0.46009827 218.68626404 C-0.36025133 220.12399529 -1.18017549 221.56196927 -2 223 C-0.69853027 222.95286865 0.60293945 222.9057373 1.94384766 222.85717773 C6.78507508 222.69394356 11.62606122 222.59084242 16.46923828 222.50561523 C18.56275362 222.46042795 20.65598605 222.39906164 22.74853516 222.32104492 C25.76275331 222.21150208 28.77321344 222.16076318 31.7890625 222.12109375 C33.18628036 222.0514164 33.18628036 222.0514164 34.61172485 221.98033142 C37.34383105 221.97822204 39.41853952 222.09531306 42 223 C44.65996157 225.67763814 46.2977906 228.65447504 48 232 C48.60811523 233.01296143 49.21623047 234.02592285 49.84277344 235.06958008 C50.34325195 235.96056396 50.84373047 236.85154785 51.359375 237.76953125 C51.91753906 238.76017578 52.47570312 239.75082031 53.05078125 240.77148438 C53.61152344 241.77501953 54.17226563 242.77855469 54.75 243.8125 C55.32621094 244.83537109 55.90242187 245.85824219 56.49609375 246.91210938 C58.74148843 250.90828382 60.96259284 254.89356091 63 259 C61.96540649 258.98366013 60.93081299 258.96732025 59.86486816 258.95048523 C50.09569571 258.80472738 40.32805893 258.72781185 30.5577774 258.71759319 C25.53482911 258.71014574 20.51444177 258.67879388 15.4921875 258.59204102 C10.64126645 258.50913988 5.79383292 258.49004004 0.94230652 258.51441383 C-0.90452731 258.5126273 -2.75148781 258.48818261 -4.59770203 258.44031334 C-12.94699581 258.13640195 -12.94699581 258.13640195 -21 260 C-25.01033132 263.89065627 -26.8583845 267.82356586 -29 273 C-29.75430102 274.37057851 -30.52629723 275.73186517 -31.3293457 277.07446289 C-31.93866943 278.1958667 -32.54799316 279.31727051 -33.17578125 280.47265625 C-33.51248337 281.08846054 -33.84918549 281.70426483 -34.1960907 282.33872986 C-35.23814962 284.24490042 -36.27587738 286.15336838 -37.3125 288.0625 C-38.70081383 290.61787609 -40.0933683 293.17087784 -41.48828125 295.72265625 C-42.09196533 296.83390869 -42.69564941 297.94516113 -43.31762695 299.09008789 C-43.87281006 300.05035889 -44.42799316 301.01062988 -45 302 C-45.38542969 302.78141357 -45.77085937 303.56282715 -46.16796875 304.36791992 C-49.23212613 307.09764968 -52.93205515 306.48655968 -56.82421875 306.390625 C-57.68561966 306.38496521 -58.54702057 306.37930542 -59.43452454 306.37347412 C-62.18608148 306.3510813 -64.93633663 306.3008808 -67.6875 306.25 C-69.55271557 306.2299387 -71.41795155 306.21168728 -73.28320312 306.1953125 C-77.85597042 306.15120713 -82.4277645 306.08216057 -87 306 C-82.52250938 297.58017981 -78.03572836 289.16722354 -73.4375 280.8125 C-73.00759766 280.02681641 -72.57769531 279.24113281 -72.13476562 278.43164062 C-68.53683908 271.88754742 -64.78394676 265.43801764 -61 259 C-84.14667901 256.41650689 -84.14667901 256.41650689 -105.94140625 261.72167969 C-110.21691033 266.31228595 -111.98436573 271.9287177 -113.84033203 277.82275391 C-115.9916279 283.71685167 -119.43060079 288.91310824 -122.6875 294.25 C-123.88202649 296.29505564 -125.0736989 298.34178266 -126.26171875 300.390625 C-128.87391401 304.87391401 -128.87391401 304.87391401 -130 306 C-133.02977804 306.08871273 -136.03667022 306.1151935 -139.06640625 306.09765625 C-139.97502914 306.0962413 -140.88365204 306.09482635 -141.81980896 306.09336853 C-144.73407221 306.08775193 -147.64825981 306.07519665 -150.5625 306.0625 C-152.53320202 306.05748714 -154.50390524 306.05292386 -156.47460938 306.04882812 C-161.31643559 306.03777711 -166.15820495 306.02050138 -171 306 C-166.84796362 297.55033636 -162.56234551 289.231557 -157.875 281.0625 C-156.73560086 279.06124131 -155.59628016 277.05993796 -154.45703125 275.05859375 C-153.88291504 274.05296387 -153.30879883 273.04733398 -152.71728516 272.01123047 C-149.9865229 267.22288505 -147.27424428 262.42413364 -144.5625 257.625 C-143.76271729 256.21069702 -143.76271729 256.21069702 -142.94677734 254.76782227 C-138.35100532 246.63541166 -133.78757827 238.48506279 -129.22851562 230.33203125 C-125.36026288 223.41801139 -121.46834332 216.51784074 -117.5625 209.625 C-110.86159494 197.79328072 -104.26214732 185.90593099 -97.67041016 174.01318359 C-95.06912229 169.32082831 -92.46305731 164.63113081 -89.85571289 159.94213867 C-87.65136501 155.9766764 -85.45108712 152.00900068 -83.25524902 148.03881836 C-81.92018324 145.62558856 -80.58368867 143.2131514 -79.24707031 140.80078125 C-78.28065995 139.0553741 -77.31608103 137.3089533 -76.3515625 135.5625 C-73.14534122 129.7776582 -69.85760879 124.06453362 -66.4296875 118.40869141 C-63.95326526 114.23649505 -61.67313822 109.95964012 -59.375 105.6875 C-55.37571346 98.30424983 -51.30894295 90.96771422 -47.125 83.6875 C-38.3635866 68.43795912 -29.80942717 53.07291667 -21.28271484 37.69116211 C-14.28606596 25.07051122 -7.20217534 12.50454023 0 0 Z " fill="#F3F2F2" transform="translate(272,78)"/>
<path d="M0 0 C0.66 0 1.32 0 2 0 C1.71788123 1.6266848 1.42397625 3.25132896 1.125 4.875 C0.96257812 5.77992188 0.80015625 6.68484375 0.6328125 7.6171875 C0 10 0 10 -2 12 C-3.32 11.67 -4.64 11.34 -6 11 C-4.02 7.37 -2.04 3.74 0 0 Z " fill="#E3E2E2" transform="translate(255,255)"/>
<path d="M0 0 C0.66 0.66 1.32 1.32 2 2 C0.52307692 6.67692308 0.52307692 6.67692308 -2.125 8.3125 C-3.053125 8.6528125 -3.053125 8.6528125 -4 9 C-2.80100302 5.9168649 -1.52299523 2.93720508 0 0 Z " fill="#D7D8D8" transform="translate(272,78)"/>
<path d="M0 0 C1 4 1 4 0.22265625 5.921875 C-0.8515625 7.61458333 -1.92578125 9.30729167 -3 11 C-3.66 10.67 -4.32 10.34 -5 10 C-3.35 6.7 -1.7 3.4 0 0 Z " fill="#DFDFDC" transform="translate(210,188)"/>
<path d="M0 0 C0.66 0 1.32 0 2 0 C0.52307692 5.66153846 0.52307692 5.66153846 -2.125 7.375 C-3.053125 7.684375 -3.053125 7.684375 -4 8 C-2.87548273 5.0280615 -1.77706209 2.66559313 0 0 Z " fill="#100D0E" transform="translate(226,234)"/>
<path d="M0 0 C0.66 0.33 1.32 0.66 2 1 C0.68 3.31 -0.64 5.62 -2 8 C-2.6875 6.25 -2.6875 6.25 -3 4 C-1.5625 1.75 -1.5625 1.75 0 0 Z " fill="#0D0E0E" transform="translate(234,290)"/>
</svg>
